{
  "accessors": [
    {
      "bufferView": 2,
      "componentType": 5126,
      "count": 12,
      "max": [
        0.5804160833358765,
        0.2529682517051697,
        1.5222569704055786
      ],
      "min": [
        -0.5396147966384888,
        -0.5000000596046448,
        -1.0
      ],
      "type": "VEC3"
    },
    {
      "bufferView": 2,
      "byteOffset": 144,
      "componentType": 5126,
      "count": 12,
      "max": [
        0.7623485326766968,
        0.6469247937202454,
        0.28605496883392334
      ],
      "min": [
        -0.7849733829498291,
        -0.958213210105896,
        -1.0
      ],
      "type": "VEC3"
    },
    {
      "bufferView": 1,
      "componentType": 5126,
      "count": 12,
      "max": [
        0.9578461050987244,
        0.49000000953674316
      ],
      "min": [
        0.042153894901275635,
        0.12999999523162842
      ],
      "type": "VEC2"
    },
    {
      "bufferView": 0,
      "componentType": 5125,
      "count": 12,
      "type": "SCALAR"
    },
    {
      "bufferView": 2,
      "byteOffset": 288,
      "componentType": 5126,
      "count": 12,
      "max": [
        0.5804160833358765,
        0.08787421882152557,
        1.8320735692977905
      ],
      "min": [
        -0.5396147966384888,
        -0.5000000596046448,
        -1.0
      ],
      "type": "VEC3"
    },
    {
      "bufferView": 2,
      "byteOffset": 432,
      "componentType": 5126,
      "count": 12,
      "max": [
        0.5840294361114502,
        0.8106700778007507,
        0.20324476063251495
      ],
      "min": [
        -0.6889044046401978,
        -0.9791280031204224,
        -1.0
      ],
      "type": "VEC3"
    },
    {
      "bufferView": 1,
      "byteOffset": 96,
      "componentType": 5126,
      "count": 12,
      "max": [
        0.9578461050987244,
        0.49000000953674316
      ],
      "min": [
        0.042153894901275635,
        0.12999999523162842
      ],
      "type": "VEC2"
    },
    {
      "bufferView": 0,
      "byteOffset": 48,
      "componentType": 5125,
      "count": 12,
      "type": "SCALAR"
    },
    {
      "bufferView": 2,
      "byteOffset": 576,
      "componentType": 5126,
      "count": 12,
      "max": [
        0.5804160833358765,
        0.26415354013442993,
        2.285996675491333
      ],
      "min": [
        -0.4326522946357727,
        -0.7654650211334229,
        -1.0
      ],
      "type": "VEC3"
    },
    {
      "bufferView": 2,
      "byteOffset": 720,
      "componentType": 5126,
      "count": 12,
      "max": [
        0.5775984525680542,
        0.8017434477806091,
        0.23279839754104614
      ],
      "min": [
        -0.8849721550941467,
        -0.9407623410224915,
        -1.0
      ],
      "type": "VEC3"
    },
    {
      "bufferView": 1,
      "byteOffset": 192,
      "componentType": 5126,
      "count": 12,
      "max": [
        0.9578461050987244,
        0.49000000953674316
      ],
      "min": [
        0.042153894901275635,
        0.12999999523162842
      ],
      "type": "VEC2"
    },
    {
      "bufferView": 0,
      "byteOffset": 96,
      "componentType": 5125,
      "count": 12,
      "type": "SCALAR"
    }
  ],
  "asset": {
    "extras": {
      "author": "RM_Way (https://sketchfab.com/FC_TUIN)",
      "license": "CC-BY-4.0 (http://creativecommons.org/licenses/by/4.0/)",
      "source": "https://sketchfab.com/3d-models/low-poly-grass-5857f3c5c97745bb99c1df22ba5b9416",
      "title": "Low Poly Grass"
    },
    "generator": "Sketchfab-12.68.0",
    "version": "2.0"
  },
  "bufferViews": [
    {
      "buffer": 0,
      "byteLength": 144,
      "name": "floatBufferViews",
      "target": 34963
    },
    {
      "buffer": 0,
      "byteLength": 288,
      "byteOffset": 144,
      "byteStride": 8,
      "name": "floatBufferViews",
      "target": 34962
    },
    {
      "buffer": 0,
      "byteLength": 864,
      "byteOffset": 432,
      "byteStride": 12,
      "name": "floatBufferViews",
      "target": 34962
    }
  ],
  "buffers": [
    {
      "byteLength": 1296,
      "uri": "scene.bin"
    }
  ],
  "materials": [
    {
      "doubleSided": true,
      "name": "Material.016",
      "pbrMetallicRoughness": {
        "baseColorFactor": [
          0.100971,
          0.396056,
          0.122457,
          1.0
        ],
        "metallicFactor": 0.0,
        "roughnessFactor": 0.9298842690930603
      }
    },
    {
      "doubleSided": true,
      "name": "Material.018",
      "pbrMetallicRoughness": {
        "baseColorFactor": [
          0.0822827,
          0.262251,
          0.0822827,
          1.0
        ],
        "metallicFactor": 0.0,
        "roughnessFactor": 0.952819853805178
      }
    },
    {
      "doubleSided": true,
      "name": "Material.017",
      "pbrMetallicRoughness": {
        "baseColorFactor": [
          0.0822827,
          0.262251,
          0.0822827,
          1.0
        ],
        "metallicFactor": 0.0,
        "roughnessFactor": 0.952819853805178
      }
    }
  ],
  "meshes": [
    {
      "name": "Cone_Material.016_0",
      "primitives": [
        {
          "attributes": {
            "NORMAL": 1,
            "POSITION": 0,
            "TEXCOORD_0": 2
          },
          "indices": 3,
          "material": 0,
          "mode": 4
        }
      ]
    },
    {
      "name": "Cone.001_Material.018_0",
      "primitives": [
        {
          "attributes": {
            "NORMAL": 5,
            "POSITION": 4,
            "TEXCOORD_0": 6
          },
          "indices": 7,
          "material": 1,
          "mode": 4
        }
      ]
    },
    {
      "name": "Cone.002_Material.017_0",
      "primitives": [
        {
          "attributes": {
            "NORMAL": 9,
            "POSITION": 8,
            "TEXCOORD_0": 10
          },
          "indices": 11,
          "material": 2,
          "mode": 4
        }
      ]
    }
  ],
  "nodes": [
    {
      "children": [
        1
      ],
      "matrix": [
        1.0,
        0.0,
        0.0,
        0.0,
        0.0,
        2.220446049250313e-16,
        -1.0,
        0.0,
        0.0,
        1.0,
        2.220446049250313e-16,
        0.0,
        0.0,
        0.0,
        0.0,
        1.0
      ],
      "name": "Sketchfab_model"
    },
    {
      "children": [
        2
      ],
      "matrix": [
        1.0,
        0.0,
        0.0,
        0.0,
        0.0,
        0.0,
        1.0,
        0.0,
        0.0,
        -1.0,
        0.0,
        0.0,
        0.0,
        0.0,
        0.0,
        1.0
      ],
      "name": "8223e4a769754de786459a140e503e60.fbx"
    },
    {
      "children": [
        3,
        5,
        7
      ],
      "name": "RootNode"
    },
    {
      "children": [
        4
      ],
      "matrix": [
        100.0,
        0.0,
        0.0,
        0.0,
        -0.0,
        -1.629206793918314e-05,
        -99.99999999999868,
        0.0,
        0.0,
        99.99999999999868,
        -1.629206793918314e-05,
        0.0,
        -33.125732421875,
        664.325927734375,
        -478.7917175292969,
        1.0
      ],
      "name": "Cone"
    },
    {
      "mesh": 0,
      "name": "Cone_Material.016_0"
    },
    {
      "children": [
        6
      ],
      "matrix": [
        -96.94627639151257,
        1.0415842518184058e-06,
        24.523824496631985,
        0.0,
        24.52382449663173,
        1.9207235102501612e-05,
        96.94627639151072,
        0.0,
        -3.7005720460170366e-06,
        99.99999999999815,
        -1.8876138407897258e-05,
        0.0,
        -2.119091033935547,
        664.325927734375,
        -338.92608642578125,
        1.0
      ],
      "name": "Cone.001"
    },
    {
      "mesh": 1,
      "name": "Cone.001_Material.018_0"
    },
    {
      "children": [
        8
      ],
      "matrix": [
        37.372812364424014,
        0.0,
        -92.75383777425343,
        0.0,
        -92.75383777424973,
        -2.821299906894657e-05,
        -37.37281236442253,
        0.0,
        -2.616863539750547e-05,
        99.99999999999602,
        -1.0543989592548542e-05,
        0.0,
        -153.25880432128906,
        664.325927734375,
        -378.74407958984375,
        1.0
      ],
      "name": "Cone.002"
    },
    {
      "mesh": 2,
      "name": "Cone.002_Material.017_0"
    }
  ],
  "scene": 0,
  "scenes": [
    {
      "name": "Sketchfab_Scene",
      "nodes": [
        0
      ]
    }
  ]
}
